<svg width="172" height="24" viewBox="0 0 172 24" fill="none" xmlns="http://www.w3.org/2000/svg">
<g clip-path="url(#clip0_28_43)">
<path d="M8.47872 0C12.8823 0 16.4574 3.58464 16.4574 8V24H0.5V8C0.5 3.58464 4.07511 0 8.47872 0Z" fill="#FF33CC"/>
<path d="M24.4362 16C28.8427 16 32.4149 12.4183 32.4149 8C32.4149 3.58172 28.8427 0 24.4362 0C20.0296 0 16.4574 3.58172 16.4574 8C16.4574 12.4183 20.0296 16 24.4362 16Z" fill="#9900FF"/>
<path d="M54.9907 12.9555L45.7469 13.7737C45.7613 14.7807 45.9579 15.5884 46.337 16.1967C46.7155 16.8051 47.291 17.1094 48.0636 17.1094C48.311 17.1094 48.5771 17.0851 48.8612 17.0358C49.1452 16.9868 49.382 16.9203 49.5713 16.8364C49.7024 16.1513 49.7899 15.4028 49.8336 14.5916L54.969 14.6124C54.8669 15.9971 54.5647 17.1372 54.0623 18.0323C53.5597 18.9276 52.78 19.6092 51.7239 20.0777C50.6675 20.5462 49.2725 20.7807 47.5389 20.7807C45.2225 20.7807 43.4557 20.1932 42.2395 19.0185C41.0229 17.8435 40.4149 16.0467 40.4149 13.6268C40.4149 11.207 41.0596 9.40666 42.3489 8.22458C43.6383 7.04282 45.5577 6.45178 48.1073 6.45178C50.409 6.45178 52.0989 6.95898 53.1773 7.97274C54.2554 8.98682 54.8599 10.5987 54.9911 12.8086H54.9256L54.9911 12.9555H54.9907ZM46.7956 10.1651C46.4896 10.2351 46.2129 10.3331 45.9652 10.4588C45.8484 11.5078 45.7827 12.2703 45.7686 12.7459L49.7896 12.3891C49.5709 10.8364 48.8644 10.0604 47.6698 10.0604C47.3928 10.0604 47.1017 10.0953 46.7956 10.1654V10.1651Z" fill="#1F0033"/>
<path d="M56.9353 13.6479C56.9353 10.4729 56.9059 8.16538 56.8479 6.72442H62.2894L61.8304 10.2911H62.1365C62.4859 9.1305 63.1124 8.20026 64.0159 7.50074C64.9191 6.80154 65.9462 6.45178 67.0973 6.45178C68.1607 6.45178 69.002 6.6617 69.6212 7.08122C70.2403 7.50074 70.6846 8.11642 70.9542 8.9273C71.2236 9.7385 71.3803 10.7875 71.424 12.0742C71.4384 12.6617 71.4461 13.3366 71.4461 14.0988C71.4461 14.8611 71.4531 15.6131 71.4678 16.3542C71.4678 18.2707 71.4821 19.662 71.5115 20.5292H66.1137C66.1428 19.3686 66.1574 18.0255 66.1574 16.5011V13.4169C66.1574 12.3401 65.9934 11.5113 65.6656 10.9308C65.3379 10.3507 64.8387 10.0601 64.1688 10.0601C63.8484 10.0601 63.4766 10.1513 63.0544 10.3327C62.6318 10.5145 62.3478 10.7244 62.2022 10.9622V14.0883C62.2022 17.0118 62.2313 19.1587 62.2897 20.5292H56.8482C56.9063 19.1027 56.9356 16.8089 56.9356 13.6479H56.9353Z" fill="#1F0033"/>
<path d="M75.2267 18.9977C73.9881 17.8092 73.3692 16.0118 73.3692 13.606C73.3692 8.83674 75.9333 6.45178 81.0614 6.45178C82.5764 6.45178 83.815 6.65466 84.7763 7.0601C85.7379 7.46586 86.47 8.0953 86.9727 8.94842C87.4753 9.80154 87.7922 10.9276 87.9231 12.326L82.8094 12.7667C82.6198 10.9487 81.8915 10.0393 80.6241 10.0393C80.3618 10.0393 80.0739 10.0745 79.7608 10.1443C79.4474 10.2143 79.1742 10.3123 78.9413 10.438C78.7807 11.543 78.7009 12.606 78.7009 13.6268C78.7009 14.6476 78.8902 15.5014 79.269 16.1443C79.6475 16.7878 80.2376 17.1094 81.039 17.1094C81.2867 17.1094 81.5561 17.0851 81.8478 17.0358C82.1391 16.9868 82.3721 16.9203 82.547 16.8364C82.6635 16.2351 82.758 15.487 82.8311 14.5916H87.9665C87.8644 16.0463 87.5548 17.2246 87.0378 18.1267C86.5204 19.0287 85.7337 19.6969 84.6776 20.1302C83.6213 20.5635 82.2263 20.7807 80.4927 20.7807C78.22 20.7807 76.464 20.1865 75.2261 18.9974L75.2267 18.9977Z" fill="#1F0033"/>
<path d="M90.3818 19.8999C89.5874 19.2986 89.1907 18.4803 89.1907 17.4451C89.1907 16.6339 89.5 15.9383 90.1195 15.3575C90.7386 14.7773 91.5652 14.3399 92.5999 14.0461C93.6342 13.7523 94.7704 13.6055 96.009 13.6055C96.7083 13.6055 97.5678 13.6474 98.5878 13.7312V13.4167C98.5878 12.4237 98.409 11.6227 98.0522 11.0144C97.6951 10.4061 97.0284 10.1018 96.0528 10.1018C95.6736 10.1437 95.3388 10.2416 95.0474 10.3955C94.8579 11.1088 94.727 11.9344 94.6539 12.8714L89.6059 12.2419C89.6787 10.9693 90.0429 9.89954 90.6984 9.03202C91.3539 8.16482 92.2134 7.51458 93.2771 7.08098C94.3405 6.6477 95.5134 6.43042 96.7954 6.43042C98.5581 6.43042 99.9566 6.68578 100.991 7.19618C102.026 7.7069 102.761 8.43394 103.198 9.37794C103.635 10.3219 103.861 11.5005 103.876 12.913V16.92C103.876 18.6963 103.883 19.8992 103.898 20.5287H98.5437L98.9372 16.92H98.6312C98.3688 18.025 97.8078 18.9482 96.9486 19.6893C96.0888 20.4307 95.0254 20.8013 93.7581 20.8013C92.3012 20.8013 91.1755 20.5008 90.3818 19.8992V19.8999ZM97.5058 16.8787C97.9648 16.585 98.3254 16.2912 98.5874 15.9975V14.592C98.4269 14.5783 98.1285 14.5709 97.6916 14.5709C96.73 14.5709 95.9359 14.704 95.3098 14.9696C94.683 15.2355 94.3702 15.6339 94.3702 16.1655C94.3702 16.5431 94.5304 16.8298 94.8508 17.0256C95.1713 17.2218 95.5938 17.3194 96.1185 17.3194C96.5845 17.3194 97.0472 17.1725 97.5062 16.8787H97.5058Z" fill="#1F0033"/>
<path d="M106.455 13.6479C106.455 10.4729 106.425 8.16538 106.367 6.72442H111.809L111.35 10.2911H111.656C112.005 9.1305 112.632 8.20026 113.535 7.50074C114.439 6.80154 115.466 6.45178 116.617 6.45178C117.68 6.45178 118.521 6.6617 119.141 7.08122C119.76 7.50074 120.204 8.11642 120.474 8.9273C120.743 9.7385 120.9 10.7875 120.944 12.0742C120.958 12.6617 120.966 13.3366 120.966 14.0988C120.966 14.8611 120.973 15.6131 120.987 16.3542C120.987 18.2707 121.002 19.662 121.031 20.5292H115.633C115.662 19.3686 115.677 18.0255 115.677 16.5011V13.4169C115.677 12.3401 115.513 11.5113 115.185 10.9308C114.857 10.3507 114.358 10.0601 113.688 10.0601C113.368 10.0601 112.996 10.1513 112.574 10.3327C112.151 10.5145 111.867 10.7244 111.722 10.9622V14.0883C111.722 17.0118 111.751 19.1587 111.809 20.5292H106.368C106.426 19.1027 106.455 16.8089 106.455 13.6479H106.455Z" fill="#1F0033"/>
<path d="M126.428 20.0886C125.642 19.6832 125.091 19.0572 124.778 18.2108C124.465 17.3648 124.309 16.2003 124.309 14.7177V10.312L122.582 10.3958V6.68221C122.917 6.68221 123.478 6.70333 124.265 6.74524C124.265 6.50748 124.257 6.33277 124.243 6.22076L124.221 4.47933C125.94 4.47933 127.776 4.42365 129.728 4.31165L129.684 6.74524L132.875 6.66141C132.816 7.50077 132.787 8.12316 132.787 8.5286C132.787 8.73852 132.773 9.06716 132.744 9.51484C132.714 9.90652 132.7 10.2073 132.7 10.4169L129.641 10.312L129.663 14.592C129.663 15.3193 129.699 15.8755 129.772 16.2598C129.845 16.6448 129.983 16.8368 130.187 16.8368C131.032 16.8368 131.818 16.8019 132.547 16.7318C132.46 18.4102 132.416 19.6553 132.416 20.4662C131.542 20.6198 130.66 20.6969 129.772 20.6969C128.33 20.6969 127.215 20.4944 126.428 20.0886Z" fill="#1F0033"/>
<path d="M134.787 6.51488C134.299 6.22112 134.055 5.74592 134.055 5.08832C134.055 4.43072 134.299 3.952 134.787 3.6512C135.275 3.35072 136.109 3.20032 137.289 3.20032C138.47 3.20032 139.303 3.35072 139.791 3.6512C140.279 3.952 140.524 4.43104 140.524 5.08832C140.524 5.7456 140.279 6.22112 139.791 6.51488C139.303 6.80864 138.469 6.95552 137.289 6.95552C136.109 6.95552 135.275 6.80864 134.787 6.51488ZM134.667 14.6762C134.667 11.9069 134.638 9.57792 134.579 7.68992C135.628 7.82976 136.532 7.89984 137.289 7.89984C137.814 7.89984 138.309 7.87552 138.775 7.82624C139.241 7.77728 139.649 7.73184 139.999 7.68992C139.97 9.536 139.955 11.865 139.955 14.6762C139.955 16.7882 139.97 18.7392 139.999 20.5296H134.579C134.637 18.6698 134.667 16.7184 134.667 14.6762H134.667Z" fill="#1F0033"/>
<path d="M141.332 6.72449H146.839C146.985 7.74561 147.32 9.67585 147.845 12.5149C148.398 15.4662 148.74 17.4803 148.872 18.5571H149.134C149.265 17.6061 149.578 15.753 150.074 12.9974C150.554 10.3402 150.918 8.24897 151.166 6.72449H156.651C155.209 12.7667 154.189 17.3686 153.592 20.5293H144.413C143.787 17.2144 142.76 12.6131 141.332 6.72449H141.332Z" fill="#1F0033"/>
<path d="M158.563 19.8999C157.769 19.2986 157.372 18.4803 157.372 17.4451C157.372 16.6339 157.681 15.9383 158.301 15.3575C158.92 14.7773 159.747 14.3399 160.781 14.0461C161.816 13.7523 162.952 13.6055 164.19 13.6055C164.89 13.6055 165.749 13.6474 166.769 13.7312V13.4167C166.769 12.4237 166.59 11.6227 166.234 11.0144C165.876 10.4061 165.21 10.1018 164.234 10.1018C163.855 10.1437 163.52 10.2416 163.229 10.3955C163.039 11.1088 162.908 11.9344 162.835 12.8714L157.787 12.2419C157.86 10.9693 158.224 9.89954 158.88 9.03202C159.535 8.16482 160.395 7.51458 161.458 7.08098C162.522 6.6477 163.695 6.43042 164.977 6.43042C166.739 6.43042 168.138 6.68578 169.173 7.19618C170.207 7.7069 170.943 8.43394 171.38 9.37794C171.817 10.3219 172.042 11.5005 172.057 12.913V16.92C172.057 18.6963 172.065 19.8992 172.079 20.5287H166.725L167.119 16.92H166.813C166.55 18.025 165.989 18.9482 165.13 19.6893C164.27 20.4307 163.207 20.8013 161.939 20.8013C160.483 20.8013 159.357 20.5008 158.563 19.8992V19.8999ZM165.687 16.8787C166.146 16.585 166.507 16.2912 166.769 15.9975V14.592C166.608 14.5783 166.31 14.5709 165.873 14.5709C164.911 14.5709 164.117 14.704 163.491 14.9696C162.864 15.2355 162.552 15.6339 162.552 16.1655C162.552 16.5431 162.712 16.8298 163.032 17.0256C163.353 17.2218 163.775 17.3194 164.3 17.3194C164.766 17.3194 165.229 17.1725 165.688 16.8787H165.687Z" fill="#1F0033"/>
</g>
<defs>
<clipPath id="clip0_28_43">
<rect width="171" height="24" fill="white" transform="translate(0.5)"/>
</clipPath>
</defs>
</svg>
